<?xml version="1.0" encoding="utf-8"?>
<!-- Generator: Adobe Illustrator 23.0.0, SVG Export Plug-In . SVG Version: 6.00 Build 0)  -->
<svg version="1.1" id="Layer_1" xmlns="http://www.w3.org/2000/svg" xmlns:xlink="http://www.w3.org/1999/xlink" x="0px" y="0px"
	 viewBox="0 0 24 24" style="enable-background:new 0 0 24 24;" xml:space="preserve">
<style type="text/css">
	.st0{fill:#212529;}
</style>
<title></title>
<g id="Bootstrap">
	<path class="st0" d="M16,8.5C16,7.1,14.9,6,13.5,6H8v5h5.5C14.9,11,16,9.9,16,8.5z"/>
	<path class="st0" d="M14,12H8v6h6c1.7,0,3-1.3,3-3S15.7,12,14,12z"/>
	<path class="st0" d="M21,1H3C1.9,1,1,1.9,1,3v18c0,1.1,0.9,2,2,2h18c1.1,0,2-0.9,2-2V3C23,1.9,22.1,1,21,1z M14,19H7.5
		C7.2,19,7,18.8,7,18.5v-13C7,5.2,7.2,5,7.5,5h6C15.4,5,17,6.6,17,8.5c0,1.1-0.5,2.2-1.4,2.8c2,0.9,3,3.2,2.1,5.2
		C17.1,18,15.6,19,14,19z"/>
</g>
</svg>
