<?xml version="1.0" encoding="utf-8"?>
<!-- Generator: Adobe Illustrator 23.0.0, SVG Export Plug-In . SVG Version: 6.00 Build 0)  -->
<svg version="1.1" id="Layer_1" xmlns="http://www.w3.org/2000/svg" xmlns:xlink="http://www.w3.org/1999/xlink" x="0px" y="0px"
	 viewBox="0 0 50 50" style="enable-background:new 0 0 50 50;" xml:space="preserve">
<style type="text/css">
	.st0{fill:none;stroke:#212529;stroke-miterlimit:10;}
	.st1{fill:#212529;}
</style>
<path class="st0" d="M45,1H5C2.8,1,1,2.8,1,5v40c0,2.2,1.8,4,4,4h40c2.2,0,4-1.8,4-4V5C49,2.8,47.2,1,45,1z"/>
<path id="B_1_" class="st1" d="M33.1,10L21,22l-8-6l-3,1v15l3,2l8-6l11.9,12l7.1-3V12.9L33.1,10z M13,29v-8l5,4L13,29z M33,31l-8-6
	l8-6V31z"/>
</svg>
